# xmcd CD database file
#
# Track frame offsets:
#	150
#	12342
#	25292
#	38285
#	49810
#	67167
#	79820
#	94012
#	105632
#	118105
#	134612
#	150127
#
# Disc length: 2148 seconds
#
# Revision: 2
# Processed by: cddbd v1.5.2PL0 Copyright (c) Steve Scherf et al.
# Submitted via: CDex 1.51
#
DISCID=9208620c
DTITLE=Otis Redding - Complete and Unbelievable: The Otis Redding Dictionary Of Soul
DYEAR=1966
DGENRE=Soul
TTITLE0=Fa-Fa-Fa-Fa-Fa (Sad Song)
TTITLE1=I'm Sick Y'All
TTITLE2=Tenessee Waltz
TTITLE3=Sweet Lorene
TTITLE4=Try A Little Tenderness
TTITLE5=Day Tripper
TTITLE6=My Lover's Prayer
TTITLE7=She Put The Hurt On Me
TTITLE8=Ton Of Joy
TTITLE9=You're Still My Baby
TTITLE10=Hawg For You
TTITLE11=Love Have Mercy
EXTD=YEAR: 1966
EXTT0=
EXTT1=
EXTT2=
EXTT3=
EXTT4=
EXTT5=
EXTT6=
EXTT7=
EXTT8=
EXTT9=
EXTT10=
EXTT11=
PLAYORDER=
